<svg width="222" height="384" viewBox="0 0 222 384" fill="none" xmlns="http://www.w3.org/2000/svg">
<path d="M221.694 380.927C221.313 382.834 219.786 383.47 216.607 383.47H165.732C162.552 383.47 160.008 382.198 157.465 379.655L73.8133 272.995L50.5698 295.107V377.779C50.5698 381.594 48.662 383.502 44.8463 383.502H5.72345C1.90782 383.502 0 381.594 0 377.779V5.72345C0 1.90782 1.90782 0 5.72345 0H44.5156C48.3313 0 50.2391 1.90782 50.2391 5.72345V234.661L150.03 133.738C152.676 131.099 155.321 129.769 157.967 129.769H210.139C212.403 129.769 213.91 130.717 214.673 132.599C215.43 135.143 215.309 136.415 214.037 137.687L107.225 241.02C221.694 374.567 221.694 380.927 221.694 380.927Z" fill="#3525E5"/>
</svg>
