<svg width="134" height="134" viewBox="0 0 134 134" fill="none" xmlns="http://www.w3.org/2000/svg">
<rect x="12" y="11" width="109" height="112" fill="white"/>
<path d="M121.879 0H12.1214C5.427 0 0 5.427 0 12.1214V121.878C0 128.573 5.427 134 12.1214 134H121.878C128.573 134 134 128.573 134 121.878V12.1214C134 5.427 128.573 0 121.879 0ZM41.4653 115.704C41.4653 117.653 39.886 119.232 37.9378 119.232H22.9221C20.9738 119.232 19.3946 117.653 19.3946 115.704V52.7592C19.3946 50.8109 20.9738 49.2317 22.9221 49.2317H37.9378C39.886 49.2317 41.4653 50.8109 41.4653 52.7592V115.704ZM30.4299 43.2981C22.5516 43.2981 16.1649 36.9114 16.1649 29.0331C16.1649 21.1548 22.5516 14.7681 30.4299 14.7681C38.3082 14.7681 44.695 21.1548 44.695 29.0331C44.695 36.9114 38.3086 43.2981 30.4299 43.2981ZM119.937 115.989C119.937 117.78 118.485 119.232 116.694 119.232H100.581C98.7896 119.232 97.3373 117.78 97.3373 115.989V86.4637C97.3373 82.0592 98.6293 67.1631 85.827 67.1631C75.8966 67.1631 73.8824 77.359 73.478 81.9347V115.989C73.478 117.78 72.026 119.232 70.2346 119.232H54.6506C52.8595 119.232 51.4072 117.78 51.4072 115.989V52.475C51.4072 50.6839 52.8595 49.2317 54.6506 49.2317H70.2346C72.0257 49.2317 73.478 50.6839 73.478 52.475V57.9666C77.1601 52.4407 82.6324 48.1755 94.2837 48.1755C120.085 48.1755 119.937 72.28 119.937 85.5243V115.989Z" fill="#3525E5"/>
</svg>
