<svg width="116" height="98" viewBox="0 0 116 98" fill="none" xmlns="http://www.w3.org/2000/svg">
<path d="M2.23511 78.001C7.13554 77.4027 12.1047 78.0472 17.0052 77.2421C19.4667 76.8511 21.7214 76.0229 23.953 75.1485C18.4317 71.6058 13.462 67.5567 8.83811 62.7024C7.18171 60.9768 8.37783 58.0781 10.7937 58.0093C12.7723 58.1012 14.7048 57.9405 16.5911 57.549C11.7825 51.4525 8.05559 44.8956 5.15689 37.5337C4.37487 35.5551 6.67526 33.5538 8.53896 34.1517C9.62013 34.5888 10.7244 34.888 11.8517 35.1179C8.42401 26.8816 7.71076 18.5765 9.62013 9.46582C10.0573 7.37223 12.818 6.86628 14.2214 8.24661C25.2184 19.0589 39.114 24.2584 53.9759 26.743C52.6644 16.5743 59.8888 5.76151 69.3669 2.21833C77.2353 -0.703459 87.795 1.29827 93.0865 7.92386C96.6297 5.69224 101.53 4.9559 105.464 4.26573C107.534 3.9204 109.536 5.94522 108.317 7.99263C106.89 10.3854 105.533 12.9387 104.038 15.3776C107.075 14.4802 110.204 13.928 113.332 13.537C115.587 13.2379 116.944 16.7118 115.219 18.0921C111.561 21.0139 107.926 24.3498 104.038 27.0186C103.923 52.8544 96.3767 74.5266 73.3016 89.2274C54.0678 101.513 18.3162 99.4428 1.59112 82.7172H1.56803C0.83169 82.533 0.44068 81.9809 0.302647 81.3831C-0.341341 80.4168 0.118435 79.2207 0.969723 78.7604C1.29197 78.3689 1.70607 78.0698 2.23511 78.001Z" fill="#3525E5"/>
</svg>
