<?xml version="1.0" encoding="utf-8"?>
<!-- Generator: Adobe Illustrator 25.2.1, SVG Export Plug-In . SVG Version: 6.00 Build 0)  -->
<svg version="1.1" id="Layer_1" xmlns="http://www.w3.org/2000/svg" xmlns:xlink="http://www.w3.org/1999/xlink" x="0px" y="0px"
	 viewBox="0 0 56.8 49.9" style="enable-background:new 0 0 56.8 49.9;" xml:space="preserve">
<style type="text/css">
	.st0{fill:#5500F3;}
	.st1{fill:#EAEAEA;}
	.st2{fill:#1C1C1C;}
</style>
<circle class="st0" cx="28.4" cy="24.9" r="24.1"/>
<path d="M39.1,14.5L39.1,14.5L39.1,14.5C39.1,14.4,39.1,14.5,39.1,14.5z"/>
<path d="M39.5,17.3L39.5,17.3L39.5,17.3z"/>
<path d="M39.1,14.4C39.1,14.4,39.1,14.4,39.1,14.4C39.1,14.4,39.1,14.4,39.1,14.4C39.1,14.4,39.1,14.4,39.1,14.4z"/>
<path d="M39.5,17.2L39.5,17.2L39.5,17.2L39.5,17.2C39.5,17.2,39.5,17.2,39.5,17.2z"/>
<path d="M39.2,14.5L39.2,14.5L39.2,14.5C39.1,14.5,39.2,14.5,39.2,14.5z"/>
<path d="M28.1,41.7C28,41.7,28,41.7,28.1,41.7L28.1,41.7C28,41.7,28,41.7,28.1,41.7z"/>
<path d="M34.5,40.4c0,0,0,0,0,0.1C34.5,40.5,34.5,40.5,34.5,40.4C34.5,40.4,34.5,40.4,34.5,40.4z"/>
<path d="M33.9,41.7C33.8,41.7,33.8,41.7,33.9,41.7L33.9,41.7C33.8,41.7,33.8,41.7,33.9,41.7z"/>
<path d="M23.5,42C23.5,42,23.4,41.9,23.5,42C23.4,41.9,23.5,42,23.5,42L23.5,42z"/>
<path d="M22.5,41c0,0,0-0.1,0-0.1C22.5,40.9,22.5,41,22.5,41L22.5,41z"/>
<path class="st1" d="M29.4,23.4c-1.4,0.6-3,1.3-5.1,1.3c-0.9,0-1.7-0.1-2.6-0.4l1.4,14.7c0.1,0.6,0.3,1.2,0.8,1.6
	c0.5,0.4,1,0.6,1.7,0.6c0,0,2,0.1,2.7,0.1c0.7,0,2.9-0.1,2.9-0.1c0.6,0,1.2-0.2,1.7-0.6c0.5-0.4,0.7-1,0.8-1.6l1.5-16.2
	c-0.7-0.2-1.4-0.4-2.2-0.4C31.7,22.4,30.6,22.9,29.4,23.4z"/>
<path d="M17.3,17.2L17.3,17.2L17.3,17.2C17.3,17.2,17.3,17.2,17.3,17.2z"/>
<path class="st2" d="M41.8,15.8l-0.2-1.1c-0.2-1-0.6-1.9-1.6-2.3c-0.3-0.1-0.7-0.2-0.9-0.4c-0.2-0.2-0.3-0.6-0.4-0.9
	c-0.1-0.6-0.2-1.2-0.3-1.9c-0.1-0.5-0.2-1.1-0.4-1.6c-0.3-0.7-1-1-1.6-1.3c-0.3-0.1-0.7-0.2-1-0.3c-1.6-0.4-3.3-0.6-5-0.7
	c-2-0.1-4-0.1-6,0.1c-1.5,0.1-3.1,0.3-4.5,0.8c-0.5,0.2-1.1,0.4-1.4,0.8C17.8,7.6,17.7,8.4,18,9c0.3,0.4,0.7,0.7,1.1,0.9
	c0.6,0.3,1.2,0.5,1.8,0.6c1.8,0.4,3.6,0.5,5.4,0.6c2,0.1,4,0,6-0.2c0.5-0.1,1-0.1,1.5-0.2c0.6-0.1,0.9-0.8,0.8-1.4
	c-0.2-0.6-0.7-0.9-1.4-0.8c-0.1,0-0.2,0-0.3,0l-0.1,0c-0.2,0-0.4,0.1-0.6,0.1c-0.4,0-0.9,0.1-1.3,0.1C29.9,8.9,29,9,28,9
	c-1,0-1.9,0-2.9-0.1c-0.4,0-0.9-0.1-1.3-0.1c-0.2,0-0.4,0-0.6-0.1l-0.2,0l0,0l-0.2,0c-0.4-0.1-0.8-0.1-1.2-0.2c0,0-0.1,0-0.1-0.1
	s0-0.1,0-0.1c0,0,0-0.1,0-0.1s0.1-0.1,0.1-0.1h0C22,8,22.3,8,22.7,7.9c0.1,0,0.2,0,0.3-0.1h0c0.2,0,0.4-0.1,0.6-0.1
	c1.9-0.2,3.7-0.3,5.6-0.2c0.9,0,1.8,0.1,2.7,0.2c0.2,0,0.4,0,0.6,0.1c0.1,0,0.1,0,0.2,0l0.1,0c0.4,0.1,0.9,0.1,1.3,0.2
	C34.9,8.2,35.7,8.3,36,9c0.1,0.2,0.1,0.5,0.2,0.7l0.1,0.3c0,0,0,0,0,0c0.2,0.7,0.3,1.4,0.5,2.1c0,0.1,0,0.1,0,0.2
	c0,0.1,0,0.1-0.1,0.1c0,0-0.1,0.1-0.1,0.1c0,0-0.1,0-0.1,0.1h0l-0.1,0l-0.1,0c-0.3,0-0.6,0.1-0.9,0.1c-0.6,0.1-1.1,0.1-1.7,0.2
	c-1.1,0.1-2.3,0.2-3.4,0.2c-0.6,0-1.2,0-1.7,0c-2.3,0-4.6-0.1-6.9-0.4c-0.2,0-0.5-0.1-0.7-0.1c0.2,0-0.1,0-0.2,0
	c-0.2,0-0.3,0-0.5-0.1c-0.5-0.1-1.1-0.2-1.6-0.3c-0.6-0.1-1.3-0.1-1.8,0.3c-0.5,0.3-0.9,0.7-1.1,1.1c-0.2,0.5-0.3,1.1-0.4,1.6
	c-0.1,0.6-0.3,1.2-0.2,1.7c0.1,1.2,1,2.2,2.2,2.5c1.2,0.2,2.3,0.4,3.5,0.5c4.6,0.6,9.3,0.6,13.9,0.2c0.4,0,0.8-0.1,1.1-0.1
	c0.1,0,0.2,0,0.3,0c0.1,0,0.2,0.1,0.3,0.2c0.1,0.1,0.1,0.2,0.2,0.3c0,0.1,0.1,0.2,0,0.3l-0.1,1.1c-0.2,2.3-0.5,4.6-0.7,6.9
	c-0.2,2.4-0.5,4.8-0.7,7.2c-0.1,0.7-0.1,1.4-0.2,2c-0.1,0.7-0.1,1.4-0.2,2c-0.2,1-0.9,1.7-1.9,1.9c-0.9,0.2-1.9,0.3-2.9,0.3
	c-1.1,0-2.1,0-3.2,0c-1.1,0-2.5-0.1-3.4-0.9c-0.8-0.7-0.9-1.9-1-2.9c-0.1-1.3-0.3-2.7-0.4-4l-0.8-7.4l-0.5-4.8c0-0.1,0-0.2,0-0.2
	c-0.1-0.6-0.5-1.1-1.1-1.1c-0.5,0-1.2,0.5-1.1,1.1l0.4,3.6l0.8,7.4c0.2,2.1,0.4,4.2,0.7,6.3c0,0.4,0.1,0.8,0.1,1.2
	c0.2,2.2,1.9,3.4,4,3.7c1.2,0.2,2.5,0.2,3.7,0.3c1.6,0,3.2,0.1,4.7-0.2c2.3-0.4,4-2,4.3-4.3c0.1-0.7,0.1-1.4,0.2-2.1
	c0.2-2.3,0.5-4.5,0.7-6.8l0.8-7.4l0.3-3.4c0-0.2,0.1-0.3,0.2-0.5c0.1-0.1,0.3-0.2,0.4-0.2c0.7-0.1,1.3-0.3,1.8-0.8
	C41.9,17.9,42.1,16.9,41.8,15.8z M17.1,16.5c0,0,0,0.1,0,0.1C17.1,16.6,17.1,16.5,17.1,16.5z M17.2,17C17.2,17,17.2,17.1,17.2,17
	C17.2,17.1,17.2,17,17.2,17L17.2,17z M17.2,17.1C17.3,17.2,17.3,17.2,17.2,17.1L17.2,17.1z M17.4,17.2L17.4,17.2
	C17.4,17.2,17.4,17.2,17.4,17.2C17.4,17.2,17.4,17.2,17.4,17.2L17.4,17.2z M39.4,17.1c-0.2,0.2-0.6,0.3-0.9,0.4
	c-3.9,0.6-7.9,0.9-11.9,0.8c-2.9-0.1-5.7-0.4-8.5-0.8c-0.3,0-0.6-0.1-0.8-0.3c-0.4-0.4-0.2-1.2-0.1-1.6c0.1-0.4,0.2-1,0.8-1.1
	c0.8-0.1,1.7,0.2,2.5,0.4c0.9,0.1,1.9,0.3,2.8,0.3c4,0.4,8.2,0.3,12.2-0.2c0.7-0.1,1.5-0.2,2.2-0.3c0.6-0.1,1.4-0.3,1.8,0.3
	c0.3,0.5,0.3,1.1,0.3,1.6C39.7,16.7,39.6,16.9,39.4,17.1L39.4,17.1z"/>
</svg>
