<?xml version="1.0" encoding="utf-8"?>
<!-- Generator: Adobe Illustrator 25.2.1, SVG Export Plug-In . SVG Version: 6.00 Build 0)  -->
<svg version="1.1" id="Layer_1" xmlns="http://www.w3.org/2000/svg" xmlns:xlink="http://www.w3.org/1999/xlink" x="0px" y="0px"
	 viewBox="0 0 226.3 35.1" style="enable-background:new 0 0 226.3 35.1;" xml:space="preserve">
<style type="text/css">
	.st0{fill:#EAEAEA;}
	.st1{fill:#4642EA;}
</style>
<circle class="st0" cx="76.3" cy="7.7" r="7.5"/>
<circle class="st0" cx="49.2" cy="27.3" r="7.5"/>
<circle class="st0" cx="104.5" cy="27.3" r="7.5"/>
<circle class="st0" cx="130" cy="27.3" r="7.5"/>
<circle class="st0" cx="102" cy="7.7" r="7.5"/>
<circle class="st0" cx="128.3" cy="7.7" r="7.5"/>
<path class="st0" d="M175.6,0h25.2c5.7,0,10.3,4.6,10.3,10.3l0,0l0,0h-45.8l0,0l0,0C165.2,4.6,169.9,0,175.6,0z"/>
<path class="st0" d="M147,24.6l53.9-0.4l0,0l0.1,10.6l0,0l-43.6,0.3c-5.7,0-10.3-4.5-10.3-10.2L147,24.6L147,24.6z"/>
<path class="st0" d="M96.5,6.6l0.6,0.1c3.8-3.8,6.9-7.7,10.7-3.9l25.7,26.7l1.3,0.8l1.1,0.7c-3.8,3.8-8.3,4.9-12.1,1.1L96.6,5.7
	L96.5,6.6z"/>
<circle class="st0" cx="75.3" cy="28.7" r="6.2"/>
<circle class="st0" cx="23.1" cy="6.3" r="6.1"/>
<rect y="10.2" class="st1" width="226.3" height="14.6"/>
<path class="st0" d="M200.4,10L211,9.9l0,0l0.1,14.1c0,5.9-4.6,10.7-10.4,10.7c0,0,0,0,0,0l0,0l0,0L200.4,10L200.4,10z"/>
<path class="st0" d="M122.8,5.3l-1.2-0.9c4-4.1,8.2-5.7,12.4-1.7L164,32l0,0l0,0c-4,4.1-10.5,4.1-14.6,0.1l0,0L121.9,4.5L122.8,5.3z
	"/>
<path class="st0" d="M75.5,9.5l-5.3-5.3c3.8-3.8,8.5-5.2,12.3-1.5l26.8,25.9l0,0l1.9,2.2c-3.8,3.8-8.9,5-12.7,1.2L68.8,2.9L75.5,9.5
	z"/>
<circle class="st0" cx="58.2" cy="11.7" r="6.1"/>
<path class="st0" d="M26.1,15.6L26.1,15.6c3.8-3.8,9.9-3.8,13.7-0.1l13.4,12.9l0.8,0.9l1.5,2.1c-3.8,3.8-8.7,4.7-12.5,1L26.1,15.6
	L26.1,15.6z"/>
</svg>
