<svg id="Layer_1" data-name="Layer 1" xmlns="http://www.w3.org/2000/svg" viewBox="0 0 226.26 35.1"><defs><style>.cls-1{fill:#eaeaea;}.cls-2{fill:#4642ea;}</style></defs><path class="cls-1" d="M764.05,389.59a7.26,7.26,0,0,1,1.48-7.1l7.45,7.1" transform="translate(-645.49 -379.37)"/><path class="cls-1" d="M784.43,404.24a7.43,7.43,0,0,1-1.48,7.19c-2.47-2.4-5-4.79-7.44-7.19" transform="translate(-645.49 -379.37)"/><path class="cls-1" d="M759.06,404.08a7.85,7.85,0,0,1,.1,4.34,7.73,7.73,0,0,1-1.58,3l-7.44-7.35" transform="translate(-645.49 -379.37)"/><path class="cls-1" d="M712.77,389.6a7.85,7.85,0,0,1-.1-4.34,7.73,7.73,0,0,1,1.58-3l7.45,7.35" transform="translate(-645.49 -379.37)"/><path class="cls-1" d="M703.7,404.25a7.84,7.84,0,0,1,.1,4.34,7.75,7.75,0,0,1-1.58,3c-2.47-2.45-5-4.9-7.44-7.34" transform="translate(-645.49 -379.37)"/><path class="cls-1" d="M175.55,0h25.17A10.31,10.31,0,0,1,211,10.31v0a0,0,0,0,1,0,0H165.25a0,0,0,0,1,0,0v0A10.31,10.31,0,0,1,175.55,0Z"/><path class="cls-1" d="M792.5,403.78h53.86a0,0,0,0,1,0,0v10.56a0,0,0,0,1,0,0H802.74a10.24,10.24,0,0,1-10.24-10.24v-.32A0,0,0,0,1,792.5,403.78Z" transform="translate(-648.18 -373.94) rotate(-0.38)"/><path class="cls-1" d="M756.45,371.17h0a9.67,9.67,0,0,1,9.67,9.67v41.67a0,0,0,0,1,0,0h0a9.67,9.67,0,0,1-9.67-9.67V371.17A0,0,0,0,1,756.45,371.17Z" transform="translate(-701.4 280.59) rotate(-45.38)"/><circle class="cls-1" cx="75.33" cy="28.68" r="6.15"/><circle class="cls-1" cx="23.1" cy="6.33" r="6.15"/><rect class="cls-2" y="10.22" width="226.26" height="14.65"/><path class="cls-1" d="M846,389.57h10.54a0,0,0,0,1,0,0v14A10.54,10.54,0,0,1,846,414.13h0a0,0,0,0,1,0,0V389.57A0,0,0,0,1,846,389.57Z" transform="translate(-648.13 -373.72) rotate(-0.38)"/><path class="cls-1" d="M782.35,371.14h0a10.32,10.32,0,0,1,10.32,10.32v41.25a0,0,0,0,1,0,0h0a10.32,10.32,0,0,1-10.32-10.32V371.14A0,0,0,0,1,782.35,371.14Z" transform="translate(-693.65 299.28) rotate(-45.38)"/><path class="cls-1" d="M731.08,371.17h0a9.67,9.67,0,0,1,9.67,9.67v41.67a0,0,0,0,1,0,0h0a9.67,9.67,0,0,1-9.67-9.67V371.17A0,0,0,0,1,731.08,371.17Z" transform="translate(-708.95 262.53) rotate(-45.38)"/><circle class="cls-1" cx="58.23" cy="11.69" r="6.15"/><path class="cls-1" d="M682.07,386.53h0a9.67,9.67,0,0,1,9.67,9.67V420a0,0,0,0,1,0,0h0a9.67,9.67,0,0,1-9.67-9.67V386.53A0,0,0,0,1,682.07,386.53Z" transform="translate(-728.11 229.56) rotate(-45.38)"/><path class="cls-1" d="M738.15,389.59a7.85,7.85,0,0,1-.1-4.34,7.73,7.73,0,0,1,1.58-3l7.44,7.35" transform="translate(-645.49 -379.37)"/></svg>